<?xml version="1.0" encoding="UTF-8" standalone="no"?>
<svg id="eyes" xmlns="http://www.w3.org/2000/svg" xmlns:carica="https://auroratide.com/carica" viewBox="0 0 1000 1000">
    <g carica:layer="face">
        <ellipse
            transform="matrix(0.99941334,0.03424884,-0.03407534,0.99941927,0,0)"
            ry="76.814194"
            rx="36.69157"
            cy="555.44623"
            cx="771.7226"
            carica:material="iris"
            fill="#111122" />
        <ellipse
            transform="matrix(0.99939886,0.0346688,-0.03365762,0.99943342,0,0)"
            cx="504.33118"
            cy="569.33862"
            rx="48.590038"
            ry="82.5718"
            carica:material="iris"
            fill="#111122" />
        <path
            d="m 389.89107,551.88535 c 0,0 23.50811,-57.64441 80.81944,-63.21341 57.31134,-5.56899 87.27315,37.88341 87.27315,37.88341 0,0 -42.12316,-16.17681 -83.12032,-10.3498 -40.99712,5.82701 -84.97227,35.6798 -84.97227,35.6798 z"
            carica:material="eyelash"
            fill="#111122" />
        <path
            d="m 693.92037,528.75425 c 0,0 21.41484,-38.86521 61.7995,-35.23504 40.38466,3.63014 44.77509,46.55125 44.77509,46.55125 0,0 -18.09685,-24.33065 -46.86929,-26.0549 -28.77243,-1.72427 -59.7053,14.73869 -59.7053,14.73869 z"
            carica:material="eyelash"
            fill="#111122" />
        <ellipse
            transform="matrix(0.99939886,0.0346688,-0.03365762,0.99943342,0,0)"
            ry="18.811749"
            rx="11.788786"
            cy="531.59448"
            cx="527.23438"
            carica:material="eyeshine"
            fill="#ffffff" />
        <ellipse
            transform="matrix(0.99944414,0.03333783,-0.0350558,0.99938536,0,0)"
            id="path1491-4"
            cx="790.07849"
            cy="521.97369"
            rx="8.1904802"
            ry="15.366179"
            carica:material="eyeshine"
            fill="#ffffff" />
        <path
            d="m 424.49338,400.28185 c 18.73091,-15.08425 41.45831,-25.7503 77.68968,-10.73185 -32.12738,-7.53321 -55.77912,-0.37791 -77.68968,10.73185 z"
            carica:material="hair"
            carica:shade="dark"
            fill="#444444" />
        <path
            d="m 746.50622,400.47573 c 15.79135,-7.12758 32.78934,-9.36436 50.81857,13.95483 -17.62505,-15.82159 -34.19728,-16.8056 -50.81857,-13.95483 z"
            carica:material="hair"
            carica:shade="dark"
            fill="#444444" />
    </g>
</svg>