<?xml version="1.0" encoding="UTF-8" standalone="no"?>
<svg xmlns="http://www.w3.org/2000/svg" xmlns:carica="https://auroratide.com/carica" viewBox="0 0 1000 1000">
    <g carica:layer="behind-body">
        <path
            d="M 723.98395,562.47812 734.31236,303.9795 c 0,0 66.05117,-44.47724 95.39289,61.88354 29.34174,106.36078 20.68097,345.00832 -41.46743,458.73675 9.6833,-144.34664 -64.25387,-262.12167 -64.25387,-262.12167 z"
            carica:material="hair"
            carica:shade="dark"
            fill="#aa81aa" />
        <path
            d="m 219.30629,629.83758 c 0,0 7.32199,108.43237 63.30794,184.73885 19.06153,-168.91166 73.05969,-189.79639 73.05969,-189.79639 l 90.99483,188.34953 100.35912,-64.96938 93.43225,70.1426 52.04614,-159.25345 c 0,0 40.59903,36.76105 42.17764,136.18234 85.57063,-189.63992 55.34825,-220.49024 55.34825,-220.49024 z"
            carica:material="hair"
            carica:shade="dark"
            fill="#aa81aa" />
    </g>
    <g carica:layer="behind-head">
        <path
            d="m 858.04063,759.95715 c -77.56637,-86.50974 -90.24127,-278.56204 -90.24127,-278.56204 0,0 -8.62979,-185.86661 73.75004,-180.34779 61.89747,153.85784 -16.388,230.72149 16.49123,458.90983 z"
            carica:material="hair"
            fill="#e7ccd8" />
        <path
            d="M 858.04063,759.95715 C 757.91598,657.68497 798.0435,512.18513 830.78548,400.13947 c -1.26459,60.86943 -3.95983,84.01884 -14.88622,141.70646 -13.19898,69.68607 -6.97292,165.6008 42.14137,218.11122 z"
            carica:material="hair"
            carica:shade="dark"
            fill="#aa81aa" />
    </g>
    <g carica:layer="afore-head">
        <path
            d="m 634.59156,552.03589 c 114.31093,-85.33206 118.13973,-160.18734 118.13973,-160.18734 0,0 11.15791,42.27687 10.01517,111.37302 C 837.48258,454.48601 874.82581,346.59244 844.68644,267.50264 814.54705,188.41286 677.02352,49.974696 479.88106,99.910241 290.73081,55.523563 144.22906,224.0034 129.33314,406.20589 c -10.82528,157.32744 66.04506,204.75794 46.90656,399.83576 82.13213,-104.56802 71.96938,-141.06659 69.51318,-155.79189 3.7763,21.6576 19.37485,59.11006 82.39759,117.20511 -8.99088,-61.40811 29.18223,-214.81614 20.27533,-259.75263 -5.33656,64.78159 16.22869,95.37454 16.3664,193.66709 73.51992,-115.87698 8.59308,-216.33168 32.15608,-306.83576 0,0 6.20511,54.48143 75.21482,104.46314 36.70029,-48.82622 59.38819,-75.45366 67.5225,-120.86955 37.64145,37.16556 74.93319,71.11556 73.94837,125.66376 13.14914,-14.50594 27.63602,-46.35844 11.30916,-73.76751 -5.43741,33.96684 18.34202,50.41893 9.64843,122.01248 z"
            carica:material="hair"
            fill="#e7ccd8" />
        <path
            d="m 762.74646,503.22157 c 1.40967,-62.89971 -9.79731,-163.77194 -64.90484,-254.9418 71.33377,90.34778 75.48783,187.58824 64.90484,254.9418 z"
            carica:material="hair"
            carica:shade="dark"
            fill="#aa81aa" />
        <path
            d="M 328.15047,767.45487 C 202.94181,664.7542 185.82493,515.57571 271.95176,325.57374 247.76441,438.11392 168.86818,599.25299 328.15047,767.45487 Z"
            carica:material="hair"
            carica:shade="dark"
            fill="#aa81aa" />
        <path
            d="m 479.88106,99.910241 c -52.48081,22.583819 -24.93922,41.015629 2.91989,51.809819 -20.95815,-18.45974 -35.69136,-27.73582 -2.91989,-51.809819 z"
            carica:material="hair"
            carica:shade="dark"
            fill="#aa81aa" />
        <path
            d="M 472.1631,498.99671 C 369.31462,431.1913 380.61063,317.89859 402.45543,242.16748 372.93391,388.9587 447.83325,480.90707 472.1631,498.99671 Z"
            carica:material="hair"
            carica:shade="dark"
            fill="#aa81aa" />
        <path
            d="M 752.73129,391.84855 C 762.42813,257.85493 703.56613,249.68933 685.79693,228.62843 l 19.7712,70.01323 z"
            carica:material="hair"
            carica:shade="dark"
            fill="#e7ccd8" />
    </g>
</svg>