<?xml version="1.0" encoding="UTF-8" standalone="no"?>
<svg id="eyes" xmlns="http://www.w3.org/2000/svg" xmlns:carica="https://auroratide.com/carica" viewBox="0 0 1000 1000">
    <g carica:layer="behind-body">
        <path
            d="M 723.98395,562.47812 734.31236,303.9795 c 0,0 66.05117,-44.47724 95.39289,61.88354 29.34174,106.36078 20.68097,345.00832 -41.46743,458.73675 9.6833,-144.34664 -64.25387,-262.12167 -64.25387,-262.12167 z"
            carica:shade="dark"
            fill="#8e5225" />
        <path
            d="m 219.30629,629.83758 c 0,0 7.32199,108.43237 63.30794,184.73885 19.06153,-168.91166 73.05969,-189.79639 73.05969,-189.79639 0,0 45.77331,159.64289 90.99483,188.34953 36.95983,-33.79874 100.35912,-64.96938 100.35912,-64.96938 0,0 53.463,31.65032 93.43225,70.1426 41.94821,-40.13059 52.04614,-159.25345 52.04614,-159.25345 0,0 40.59903,36.76105 42.17764,136.18234 85.57063,-189.63992 55.34825,-220.49024 55.34825,-220.49024 0,0 -98.31415,-403.5956 -336.27462,-367.01751 -208.53476,32.05491 -234.45124,422.11365 -234.45124,422.11365 z"
            carica:shade="dark"
            fill="#8e5225" />
    </g>
    <g carica:layer="behind-head">
        <path
            d="m 858.04063,759.95715 c -77.56637,-86.50974 -90.24127,-278.56204 -90.24127,-278.56204 0,0 -8.62979,-185.86661 73.75004,-180.34779 61.89747,153.85784 -16.388,230.72149 16.49123,458.90983 z"
            fill="#cb803f" />
        <path
            d="M 858.04063,759.95715 C 757.91598,657.68497 798.0435,512.18513 830.78548,400.13947 c -1.26459,60.86943 -3.95983,84.01884 -14.88622,141.70646 -13.19898,69.68607 -6.97292,165.6008 42.14137,218.11122 z"
            carica:shade="dark"
            fill="#8e5225" />
    </g>
    <path
        carica:layer="head"
        carica:material="skin"
        d="m 537.44726,788.08901 c 152.16208,5.20081 265.19952,-72.51782 271.03439,-111.28005 2.95964,-19.66153 -9.09494,-36.02961 -8.59327,-67.20279 0.8949,-55.60482 48.21223,-182.02613 -4.01741,-274.66952 -52.22964,-92.6434 -122.41494,-145.54832 -272.45108,-150.67646 -150.03613,-5.12815 -264.44196,40.29305 -313.28632,170.52359 -48.84434,130.23054 8.12974,242.99963 35.47788,303.78433 27.34815,60.78471 139.67373,124.32009 291.83581,129.5209 z"
        fill="#fff0e0" />
    <g carica:layer="ear">
        <path
            d="m 318.33883,729.36396 c 0,0 -60.78943,-33.31151 -91.23223,-73.11827 C 196.6638,616.43893 196.97553,555.3867 242.5,540 c 45.52447,-15.3867 108.44975,70.75736 108.44975,70.75736 -17.30519,32.03177 -34.40016,54.65785 -32.61092,118.6066 z"
            carica:material="skin"
            fill="#fff0e0" />
        <path
            d="m 305.58277,706.16548 c -38.40002,-27.91697 -76.36463,-51.98925 -81.09129,-90.81435 -2.28034,-18.73082 -0.68988,-46.08668 26.56925,-50.57437 27.25914,-4.48769 71.56706,53.35184 71.56706,53.35184 -12.16287,22.87505 -19.83725,31.76804 -17.04502,88.03688 z"
            carica:material="skin"
            carica:shade="dark"
            fill="#fff0e0" />
    </g>
    <g carica:layer="afore-ear">
        <path
            d="M 634.59156,552.19876 C 748.90249,466.4415 752.73129,391.21321 752.73129,391.21321 c 0,0 11.15791,42.48754 10.01517,111.92799 C 837.48258,454.16279 874.82581,345.7316 844.68644,266.24769 814.54705,186.76381 677.02352,47.635815 479.88106,97.820194 290.73081,53.212332 144.22906,222.5317 129.33314,405.64209 c -10.82528,158.1114 66.04506,205.77825 46.90656,401.82813 82.13213,-105.08908 71.96938,-141.76952 69.51318,-156.56819 3.7763,21.76552 19.37485,59.40459 82.39759,117.78913 -8.99088,-61.7141 29.18223,-215.88655 20.27533,-261.04697 -5.33656,65.1044 16.22869,95.84979 16.3664,194.63214 73.51992,-116.45439 8.59308,-217.40966 32.15608,-308.36472 0,0 6.20511,54.75291 75.21482,104.98367 36.70029,-49.06951 59.38819,-75.82963 67.5225,-121.47183 37.64145,37.35075 74.93319,71.46993 73.94837,126.28993 13.14914,-14.57821 27.63602,-46.58944 11.30916,-74.13508 -5.43741,34.13609 18.34202,50.67016 9.64843,122.62046 z"
            fill="#cb803f" />
        <path
            d="m 762.74646,503.1412 c 1.40967,-63.21313 -9.79731,-164.58801 -64.90484,-256.21217 71.33377,90.79798 75.48783,188.52299 64.90484,256.21217 z"
            carica:shade="dark"
            fill="#8e5225" />
        <path
            d="M 328.15047,768.69116 C 202.94181,665.47874 185.82493,515.5569 271.95176,324.60816 c -24.18735,113.10096 -103.08358,275.04299 56.19871,444.083 z"
            carica:shade="dark"
            fill="#8e5225" />
        <path
            d="m 479.88106,97.820194 c -52.48081,22.696336 -24.93922,41.219996 2.91989,52.067976 -20.95815,-18.55173 -35.69136,-27.87402 -2.91989,-52.067976 z"
            carica:shade="dark"
            fill="#8e5225" />
        <path
            d="M 472.1631,498.89528 C 369.31462,430.75201 380.61063,316.89476 402.45543,240.78629 372.93391,388.30896 447.83325,480.7155 472.1631,498.89528 Z"
            carica:shade="dark"
            fill="#8e5225" />
        <path
            d="M 752.73129,391.21321 C 762.42813,256.5519 703.56613,248.34562 685.79693,227.17977 l 19.7712,70.36211 z"
            fill="#cb803f" />
    </g>
    <g carica:layer="face">
        <ellipse
            transform="matrix(0.99941334,0.03424884,-0.03407534,0.99941927,0,0)"
            ry="76.814194"
            rx="36.69157"
            cy="555.44623"
            cx="771.7226"
            carica:material="iris"
            fill="#2d5e94" />
        <ellipse
            transform="matrix(0.99939886,0.0346688,-0.03365762,0.99943342,0,0)"
            cx="504.33118"
            cy="569.33862"
            rx="48.590038"
            ry="82.5718"
            carica:material="iris"
            fill="#2d5e94" />
        <path
            d="m 389.89107,551.88535 c 0,0 23.50811,-57.64441 80.81944,-63.21341 57.31134,-5.56899 87.27315,37.88341 87.27315,37.88341 0,0 -42.12316,-16.17681 -83.12032,-10.3498 -40.99712,5.82701 -84.97227,35.6798 -84.97227,35.6798 z"
            carica:material="eyelash"
            fill="#111122" />
        <path
            d="m 693.92037,528.75425 c 0,0 21.41484,-38.86521 61.7995,-35.23504 40.38466,3.63014 44.77509,46.55125 44.77509,46.55125 0,0 -18.09685,-24.33065 -46.86929,-26.0549 -28.77243,-1.72427 -59.7053,14.73869 -59.7053,14.73869 z"
            carica:material="eyelash"
            fill="#111122" />
        <ellipse
            transform="matrix(0.99939886,0.0346688,-0.03365762,0.99943342,0,0)"
            ry="18.811749"
            rx="11.788786"
            cy="531.59448"
            cx="527.23438"
            carica:material="eyeshine"
            fill="#ffffff" />
        <ellipse
            transform="matrix(0.99944414,0.03333783,-0.0350558,0.99938536,0,0)"
            id="path1491-4"
            cx="790.07849"
            cy="521.97369"
            rx="8.1904802"
            ry="15.366179"
            carica:material="eyeshine"
            fill="#ffffff" />
    </g>
    <g carica:layer="face">
        <path
            d="m 760.92889,499.39586 c 0,0 8.23424,-2.82402 25.62754,-18.12509 -1.27899,14.78793 -16.77727,25.64062 -16.77727,25.64062 z"
            carica:material="eyelashes"
            fill="#111122" />
        <path
            d="m 474.97956,493.85022 c 0,0 10.57471,-4.88553 29.96115,-25.53385 2.89265,16.63399 -15.26066,31.95562 -15.26066,31.95562 z"
            carica:material="eyelashes"
            fill="#111122" />
    </g>
    <g carica:layer="face">
        <path
            d="m 424.49338,400.28185 c 18.73091,-15.08425 41.45831,-25.7503 77.68968,-10.73185 -32.12738,-7.53321 -55.77912,-0.37791 -77.68968,10.73185 z"
            carica:material="hair"
            carica:shade="dark"
            fill="#8e5225" />
        <path
            d="m 746.50622,400.47573 c 15.79135,-7.12758 32.78934,-9.36436 50.81857,13.95483 -17.62505,-15.82159 -34.19728,-16.8056 -50.81857,-13.95483 z"
            carica:material="hair"
            carica:shade="dark"
            fill="#8e5225" />
    </g>
    <g carica:layer="face">
        <path
            d="m 563.94974,719.29578 c 5.73525,-3.40557 96.67488,-5.72263 103.71029,-1.87927 11.28807,6.16655 -30.1107,47.62425 -61.55069,47.53701 -31.43999,-0.0872 -54.15901,-38.53254 -42.1596,-45.65774 z"
            carica:material="mouth"
            fill="#e65889" />
        <path
            d="m 563.95365,719.3075 c 2.86762,-1.70279 18.64378,-2.55234 39.12381,-3.31205 20.60631,3.94223 43.92419,17.31331 48.92912,28.30284 -10.70772,9.15708 -28.1818,20.66488 -45.89333,20.66695 -31.44011,0.004 -54.15901,-38.53254 -42.1596,-45.65774 z"
            carica:material="tongue"
            fill="#bb2563" />
    </g>
</svg>
