<?xml version="1.0" encoding="UTF-8" standalone="no"?>
<svg id="hair" xmlns="http://www.w3.org/2000/svg" xmlns:carica="https://auroratide.com/carica" carica:material="hair" viewBox="0 0 1000 1000">
    <g carica:layer="behind-body">
        <path
            d="M 723.98395,562.47812 734.31236,303.9795 c 0,0 66.05117,-44.47724 95.39289,61.88354 29.34174,106.36078 20.68097,345.00832 -41.46743,458.73675 9.6833,-144.34664 -64.25387,-262.12167 -64.25387,-262.12167 z"
            carica:shade="dark"
            fill="#444444" />
        <path
            d="m 219.30629,629.83758 c 0,0 7.32199,108.43237 63.30794,184.73885 19.06153,-168.91166 73.05969,-189.79639 73.05969,-189.79639 0,0 45.77331,159.64289 90.99483,188.34953 36.95983,-33.79874 100.35912,-64.96938 100.35912,-64.96938 0,0 53.463,31.65032 93.43225,70.1426 41.94821,-40.13059 52.04614,-159.25345 52.04614,-159.25345 0,0 40.59903,36.76105 42.17764,136.18234 85.57063,-189.63992 55.34825,-220.49024 55.34825,-220.49024 0,0 -98.31415,-403.5956 -336.27462,-367.01751 -208.53476,32.05491 -234.45124,422.11365 -234.45124,422.11365 z"
            carica:shade="dark"
            fill="#444444" />
    </g>
    <g carica:layer="behind-head">
        <path
            d="m 858.04063,759.95715 c -77.56637,-86.50974 -90.24127,-278.56204 -90.24127,-278.56204 0,0 -8.62979,-185.86661 73.75004,-180.34779 61.89747,153.85784 -16.388,230.72149 16.49123,458.90983 z"
            fill="#999999" />
        <path
            d="M 858.04063,759.95715 C 757.91598,657.68497 798.0435,512.18513 830.78548,400.13947 c -1.26459,60.86943 -3.95983,84.01884 -14.88622,141.70646 -13.19898,69.68607 -6.97292,165.6008 42.14137,218.11122 z"
            carica:shade="dark"
            fill="#444444" />
    </g>
    <g carica:layer="afore-ear">
        <path
            d="M 634.59156,552.19876 C 748.90249,466.4415 752.73129,391.21321 752.73129,391.21321 c 0,0 11.15791,42.48754 10.01517,111.92799 C 837.48258,454.16279 874.82581,345.7316 844.68644,266.24769 814.54705,186.76381 677.02352,47.635815 479.88106,97.820194 290.73081,53.212332 144.22906,222.5317 129.33314,405.64209 c -10.82528,158.1114 66.04506,205.77825 46.90656,401.82813 82.13213,-105.08908 71.96938,-141.76952 69.51318,-156.56819 3.7763,21.76552 19.37485,59.40459 82.39759,117.78913 -8.99088,-61.7141 29.18223,-215.88655 20.27533,-261.04697 -5.33656,65.1044 16.22869,95.84979 16.3664,194.63214 73.51992,-116.45439 8.59308,-217.40966 32.15608,-308.36472 0,0 6.20511,54.75291 75.21482,104.98367 36.70029,-49.06951 59.38819,-75.82963 67.5225,-121.47183 37.64145,37.35075 74.93319,71.46993 73.94837,126.28993 13.14914,-14.57821 27.63602,-46.58944 11.30916,-74.13508 -5.43741,34.13609 18.34202,50.67016 9.64843,122.62046 z"
            fill="#999999" />
        <path
            d="m 762.74646,503.1412 c 1.40967,-63.21313 -9.79731,-164.58801 -64.90484,-256.21217 71.33377,90.79798 75.48783,188.52299 64.90484,256.21217 z"
            carica:shade="dark"
            fill="#444444" />
        <path
            d="M 328.15047,768.69116 C 202.94181,665.47874 185.82493,515.5569 271.95176,324.60816 c -24.18735,113.10096 -103.08358,275.04299 56.19871,444.083 z"
            carica:shade="dark"
            fill="#444444" />
        <path
            d="m 479.88106,97.820194 c -52.48081,22.696336 -24.93922,41.219996 2.91989,52.067976 -20.95815,-18.55173 -35.69136,-27.87402 -2.91989,-52.067976 z"
            carica:shade="dark"
            fill="#444444" />
        <path
            d="M 472.1631,498.89528 C 369.31462,430.75201 380.61063,316.89476 402.45543,240.78629 372.93391,388.30896 447.83325,480.7155 472.1631,498.89528 Z"
            carica:shade="dark"
            fill="#444444" />
        <path
            d="M 752.73129,391.21321 C 762.42813,256.5519 703.56613,248.34562 685.79693,227.17977 l 19.7712,70.36211 z"
            fill="#999999" />
    </g>
</svg>