<?xml version="1.0" encoding="UTF-8" standalone="no"?>
<svg id="hair" xmlns="http://www.w3.org/2000/svg" xmlns:carica="https://auroratide.com/carica" carica:material="hair" viewBox="0 0 1000 1000">
    <g carica:layer="behind-head">
        <path
            d="m 784.24844,252.47701 c 0,0 48.84684,202.35601 80.9704,243.9345 -69.25181,-29.25168 -45.55328,-43.76412 -45.55328,-43.76412 0,0 7.64314,63.113 14.4558,99.70095 C 791.17202,525.35678 778.0634,435.58831 778.0634,435.58831 Z"
            carica:shade="dark"
            fill="#444444" />
        <path
            d="m 571.30704,800.95931 c -14.67365,-17.59409 -81.24617,-51.82701 -81.24617,-51.82701 0,0 -3.36667,32.02347 -0.62171,57.67153 -45.29783,-19.75346 -76.18185,-75.76747 -76.18185,-75.76747 0,0 -2.80443,48.03879 -36.06312,67.29541 -12.49914,-39.04128 -41.18562,-84.84198 -41.18562,-84.84198 0,0 -10.01117,33.54151 -31.34735,41.49209 C 317.95614,715.83891 201.19329,515.96171 201.19329,515.96171 L 378.92448,244.96794 794.63985,220.51935 762.73986,693.41722 556.63938,751.20643 c 0,0 19.22131,29.70137 14.66766,49.75288 z"
            carica:shade="dark"
            fill="#444444" />
    </g>
    <g carica:layer="behind-ear">
        <path
            d="M 346.41421,592.75305 C 345.58793,532.7906 380,384 380,384 L 159.5,371.5 c 0,0 -15.29289,161.0715 19.25,249.25 6.78518,-34.65011 6.1078,-56.5814 9.66421,-73 C 193.1453,619.50165 233.64594,670.34984 251,684.25 269.00454,618.85203 291,528 291,528 c 0,0 22.74343,53.80871 55.41421,64.75305 z"
            carica:shade="dark"
            fill="#444444" />
    </g>
    <g carica:layer="afore-ear">
        <path
            d="m 387.42345,373.8671 c 111.53699,-54.19102 213.42757,-15.88843 250.99319,-9.15151 37.21206,-11.64786 86.46668,-23.74868 137.27949,-16.11194 43.57296,33.89191 54.23735,44.66661 68.58938,147.0782 46.16899,-117.84936 -6.94113,-178.09903 -6.94113,-178.09903 0,0 30.35797,-10.34246 60.89563,6.35092 -16.83849,-86.54422 -61.009,-104.82952 -61.009,-104.82952 0,0 27.29035,-15.73244 65.29017,-7.54014 -37.22762,-55.32722 -92.36442,-57.8007 -92.36442,-57.8007 0,0 15.66832,-70.157346 -18.33573,-109.18264 1.84848,49.005472 -15.18733,74.49747 -15.18733,74.49747 0,0 0.5459,-99.967204 -46.26725,-138.588094 -40.14733,67.636573 -129.22518,113.253576 -129.22518,113.253576 0,0 25.65106,-63.242889 16.07107,-86.6898721 C 525.30026,58.370173 404.26407,106.15968 404.26407,106.15968 c 0,0 -13.61081,-29.512832 -72.04162,-42.800772 C 308.94453,149.64246 225.49214,184.2451 194.19424,289.99596 c 11.55536,-14.39846 9.5253,-41.4737 17.47684,-86.24547 -48.27728,57.61479 -41.25882,93.00144 -47.37967,135.64857 69.76808,25.74999 126.02675,41.94794 223.13204,34.46804 z"
            fill="#999999" />
        <path
            d="m 166.8772,328.09755 c 0,0 -34.62409,114.8676 -23.33452,185.26198 26.43559,-55.70916 65.76093,-127.27922 65.76093,-127.27922 0,0 -0.51131,51.88151 14.27817,78.45331 34.05142,-46.83953 62.08936,-66.4325 62.08936,-66.4325 0,0 -25.21749,43.46558 -3.53553,76.36752 48.82627,-49.79577 125.1579,-137.17871 125.1579,-137.17871 z"
            fill="#999999" />
        <path
            d="m 405.70162,387.73106 c -36.72173,-57.95446 -109.63426,-50.70182 -143.365,-86.50357 4.93844,60.68859 49.71067,85.71677 49.71067,85.71677 0,0 -20.10096,17.12865 -32.50788,41.86575 34.02889,-2.35851 56.94291,-5.43934 56.94291,-5.43934 0,0 -25.678,23.26439 -28.8198,59.96804 27.36505,-17.43787 67.88656,-9.57717 67.88656,-9.57717 l -9.14653,-20.62486 c 0,0 2.99978,-13.96414 20.22134,-28.21986 -4.94266,-13.33783 -6.86296,-25.28764 -6.86296,-25.28764 0,0 4.70257,-8.15576 25.94069,-11.89812 z"
            fill="#999999" />
        <path
            d="M 617.01133,7.3210678 C 534.00663,52.871091 448.87706,72.449965 404.03948,105.50299 c -36.88074,27.18746 -59.65548,51.64143 -85.13432,108.04326 0,0 43.0819,-63.0446 91.48023,-94.49495 C 458.78372,87.600948 539.28603,68.386588 617.01133,7.3210678 Z"
            carica:shade="dark"
            fill="#444444" />
        <path
            d="M 331.80986,259.15464 C 314.56039,239.82722 313.86973,212.40439 317.66772,182.7871 l 25.10229,21.74354 z"
            fill="#999999" />
        <path
            d="M 710.47151,8.4093254 C 699.97091,21.999399 621.91979,84.223476 591.59315,98.889087 561.26651,113.5547 535.239,133.03057 511.08148,183.33884 c 37.20661,-48.29554 63.25936,-61.38227 86.6958,-73.05547 23.43644,-11.6732 84.436,-53.751039 112.69423,-101.8740446 z"
            carica:shade="dark"
            fill="#444444" />
        <path
            d="M 524.10519,344.23773 479.4036,325.55256 c 0,0 -30.92615,37.25043 -0.0702,97.64069 3.01485,-37.12302 26.92938,-70.48825 44.77179,-78.95552 z"
            fill="#999999" />
        <path
            d="m 614.75,369.75 -58.125,-23 21.125,-12 c 12.14557,11.42258 16.33102,12.497 37,35 z"
            fill="#999999" />
        <path
            d="m 471.44379,230.5322 c 1.69896,38.82212 11.30119,79.40878 34.82913,100.27 23.52794,20.86122 63.16765,32.26132 108.95117,39.34694 -34.15831,-26.35566 -68.24457,-13.85576 -101.79014,-50.75102 -21.34323,-21.35511 -33.87557,-64.20858 -41.99016,-88.86592 z"
            carica:shade="dark"
            fill="#444444" />
        <path
            d="m 686.1289,364.40521 c 22.11184,-0.97319 65.08045,-16.64769 89.47536,-33.56718 l -68.85103,15.11396 z"
            fill="#999999" />
        <path
            d="m 685.99346,364.46407 c 47.87694,-51.07723 68.93544,-85.26843 92.38125,-148.29685 -7.64739,60.55817 -48.96995,132.43022 -92.38125,148.29685 z"
            carica:shade="dark"
            fill="#444444" />
        <path
            d="m 742.46213,339.76481 31.81979,3.88909 c 0,0 32.68049,28.39077 15.55636,83.26183 -7.08959,-39.9963 -47.37615,-87.15092 -47.37615,-87.15092 z"
            fill="#999999" />
        <path
            d="m 392.8862,359.29863 c -13.83928,13.88075 9.81065,2.96564 43.55985,9.104 -7.05484,-11.27538 -7.21758,-11.01312 -9.17677,-11.84404 17.7177,2.21324 14.55054,-0.88523 39.4212,3.71232 -9.60834,-23.34976 -23.57598,-20.53945 -39.24443,-29.34494 z"
            fill="#999999" />
        <path
            d="m 354.51418,286.00266 c -58.69162,-25.23873 -49.15993,-65.56613 -37.51287,-107.77108 1.42834,31.90668 -7.81935,59.94136 37.51287,107.77108 z"
            carica:shade="dark"
            fill="#444444" />
        <path
            d="m 317.14688,178.39489 c 11.99018,12.5775 16.71782,22.01498 44.87964,27.05236 -29.91022,9.47701 -39.84322,-12.38521 -44.87964,-27.05236 z"
            carica:shade="dark"
            fill="#444444" />
        <path
            d="M 792.6667,45.608388 C 824.93275,76.469871 829.8761,169.4423 778.69183,191.47213 820.70509,157.17751 814.45821,90.102107 792.6667,45.608388 Z"
            carica:shade="dark"
            fill="#444444" />
        <path
            d="M 262.42501,301.1391 C 307.86919,335.33385 345.20982,335.02982 367,348 c 21.79018,12.97018 30.51871,24.20677 38.5,40 -55.72307,-49.18653 -95.37251,-32.53915 -143.07499,-86.8609 z"
            carica:shade="dark"
            fill="#444444" />
        <path
            d="m 262.25,301.25 c 11.21859,30.64315 27.17439,59.50154 51,85.5 -39.88145,-19.97923 -50.13427,-50.97253 -51,-85.5 z"
            carica:shade="dark"
            fill="#444444" />
        <path
            d="m 691.66484,245.89214 c 7.08959,-10.03771 31.10037,-44.40878 35.37805,-54.02602 C 738.50455,243.61966 724.56705,285.89698 715,303.25 c 8.0183,-38.0214 10.90383,-66.94852 8.2981,-88.34099 0.17575,1.68598 -26.52891,28.19012 -31.63326,30.98313 z"
            carica:shade="dark"
            fill="#444444" />
        <path
            d="m 471.46345,230.34003 c 33.37646,7.83856 56.4595,35.93349 75.66043,50.02781 C 521.44,235.8754 500.38704,232.79293 471.46345,230.34003 Z"
            carica:shade="dark"
            fill="#444444" />
        <path
            d="m 778.17102,216.72823 c 31.26355,23.6666 31.90755,55.43707 20.87741,81.45332 1.05382,-36.44616 -9.63619,-61.40055 -20.87741,-81.45332 z"
            carica:shade="dark"
            fill="#444444" />
    </g>
</svg>